<?xml version="1.0" encoding="UTF-8" standalone="no"?>
<!DOCTYPE svg PUBLIC "-//W3C//DTD SVG 1.1//EN"
 "http://www.w3.org/Graphics/SVG/1.1/DTD/svg11.dtd">
<!-- Generated by graphviz version 2.38.0 (20140413.2041)
 -->
<!-- Title: G Pages: 1 -->
<svg width="394pt" height="888pt"
 viewBox="0.00 0.00 394.49 888.00" xmlns="http://www.w3.org/2000/svg" xmlns:xlink="http://www.w3.org/1999/xlink">
<g id="graph0" class="graph" transform="scale(1 1) rotate(0) translate(4 884)">
<title>G</title>
<polygon fill="white" stroke="none" points="-4,4 -4,-884 390.494,-884 390.494,4 -4,4"/>
<g id="clust1" class="cluster"><title>cluster_Global</title>
<path fill="none" stroke="gray" d="M20,-44C20,-44 366.494,-44 366.494,-44 372.494,-44 378.494,-50 378.494,-56 378.494,-56 378.494,-860 378.494,-860 378.494,-866 372.494,-872 366.494,-872 366.494,-872 20,-872 20,-872 14,-872 8,-866 8,-860 8,-860 8,-56 8,-56 8,-50 14,-44 20,-44"/>
<text text-anchor="middle" x="193.247" y="-859.2" font-family="Times,serif" font-size="11.00" fill="gray">Global</text>
</g>
<!-- \\XmlDomConstruct -->
<g id="node1" class="node"><title>\\XmlDomConstruct</title>
<polygon fill="none" stroke="black" points="353.494,-412 235.494,-412 235.494,-376 353.494,-376 353.494,-412"/>
<text text-anchor="middle" x="294.494" y="-391.2" font-family="Courier,monospace" font-size="11.00">XmlDomConstruct</text>
</g>
<!-- \\DOMDocument -->
<g id="node17" class="node"><title>\\DOMDocument</title>
<ellipse fill="none" stroke="black" cx="75" cy="-18" rx="71.4873" ry="18"/>
<text text-anchor="middle" x="75" y="-14.3" font-family="Times,serif" font-size="14.00" fill="gray">\DOMDocument</text>
</g>
<!-- \\XmlDomConstruct&#45;&gt;\\DOMDocument -->
<g id="edge1" class="edge"><title>\\XmlDomConstruct&#45;&gt;\\DOMDocument</title>
<path fill="none" stroke="black" d="M235.2,-379.987C228.932,-376.562 223.153,-372.302 218.494,-367 120.258,-255.217 247.113,-149.643 146.494,-40 144.673,-38.0164 142.677,-36.2101 140.546,-34.5655"/>
<polygon fill="none" stroke="black" points="142.068,-31.3862 131.748,-28.9902 138.321,-37.2991 142.068,-31.3862"/>
</g>
<!-- \\lifeFileHandler -->
<g id="node2" class="node"><title>\\lifeFileHandler</title>
<polygon fill="none" stroke="black" points="353.494,-790 235.494,-790 235.494,-754 353.494,-754 353.494,-790"/>
<text text-anchor="middle" x="294.494" y="-769.2" font-family="Courier,monospace" font-size="11.00">lifeFileHandler</text>
</g>
<!-- \\lifeFolderHandler -->
<g id="node3" class="node"><title>\\lifeFolderHandler</title>
<polygon fill="none" stroke="black" points="359.994,-736 228.994,-736 228.994,-700 359.994,-700 359.994,-736"/>
<text text-anchor="middle" x="294.494" y="-715.2" font-family="Courier,monospace" font-size="11.00">lifeFolderHandler</text>
</g>
<!-- \\lifeFile -->
<g id="node4" class="node"><title>\\lifeFile</title>
<polygon fill="none" stroke="black" points="329.994,-682 258.994,-682 258.994,-646 329.994,-646 329.994,-682"/>
<text text-anchor="middle" x="294.494" y="-661.2" font-family="Courier,monospace" font-size="11.00">lifeFile</text>
</g>
<!-- \\lifeVision -->
<g id="node5" class="node"><title>\\lifeVision</title>
<polygon fill="none" stroke="black" points="336.494,-628 252.494,-628 252.494,-592 336.494,-592 336.494,-628"/>
<text text-anchor="middle" x="294.494" y="-607.2" font-family="Courier,monospace" font-size="11.00">lifeVision</text>
</g>
<!-- \\lifeCacheApc -->
<g id="node6" class="node"><title>\\lifeCacheApc</title>
<polygon fill="none" stroke="black" points="343.494,-466 245.494,-466 245.494,-430 343.494,-430 343.494,-466"/>
<text text-anchor="middle" x="294.494" y="-445.2" font-family="Courier,monospace" font-size="11.00">lifeCacheApc</text>
</g>
<!-- \\lifeCacheEngine -->
<g id="node11" class="node"><title>\\lifeCacheEngine</title>
<polygon fill="none" stroke="black" points="134,-547 16,-547 16,-511 134,-511 134,-547"/>
<text text-anchor="middle" x="75" y="-526.2" font-family="Courier,monospace" font-size="11.00">lifeCacheEngine</text>
</g>
<!-- \\lifeCacheApc&#45;&gt;\\lifeCacheEngine -->
<g id="edge2" class="edge"><title>\\lifeCacheApc&#45;&gt;\\lifeCacheEngine</title>
<path fill="none" stroke="black" d="M245.438,-465.166C236.473,-468.406 227.191,-471.787 218.494,-475 190.093,-485.493 158.607,-497.396 132.471,-507.352"/>
<polygon fill="none" stroke="black" points="131.196,-504.092 123.1,-510.925 133.69,-510.633 131.196,-504.092"/>
</g>
<!-- \\lifeCacheXcache -->
<g id="node7" class="node"><title>\\lifeCacheXcache</title>
<polygon fill="none" stroke="black" points="353.494,-844 235.494,-844 235.494,-808 353.494,-808 353.494,-844"/>
<text text-anchor="middle" x="294.494" y="-823.2" font-family="Courier,monospace" font-size="11.00">lifeCacheXcache</text>
</g>
<!-- \\lifeCacheXcache&#45;&gt;\\lifeCacheEngine -->
<g id="edge3" class="edge"><title>\\lifeCacheXcache&#45;&gt;\\lifeCacheEngine</title>
<path fill="none" stroke="black" d="M235.346,-810.12C229.278,-807.029 223.508,-803.357 218.494,-799 140.878,-731.558 99.0679,-611.281 83.3683,-556.974"/>
<polygon fill="none" stroke="black" points="86.7322,-556.007 80.6556,-547.328 79.9936,-557.902 86.7322,-556.007"/>
</g>
<!-- \\lifeCacheFile -->
<g id="node8" class="node"><title>\\lifeCacheFile</title>
<polygon fill="none" stroke="black" points="346.494,-574 242.494,-574 242.494,-538 346.494,-538 346.494,-574"/>
<text text-anchor="middle" x="294.494" y="-553.2" font-family="Courier,monospace" font-size="11.00">lifeCacheFile</text>
</g>
<!-- \\lifeCacheFile&#45;&gt;\\lifeCacheEngine -->
<g id="edge4" class="edge"><title>\\lifeCacheFile&#45;&gt;\\lifeCacheEngine</title>
<path fill="none" stroke="black" d="M242.226,-549.636C212.989,-546.006 175.973,-541.411 144.296,-537.478"/>
<polygon fill="none" stroke="black" points="144.571,-533.986 134.216,-536.227 143.709,-540.932 144.571,-533.986"/>
</g>
<!-- \\lifeCacheMemcache -->
<g id="node9" class="node"><title>\\lifeCacheMemcache</title>
<polygon fill="none" stroke="black" points="359.994,-520 228.994,-520 228.994,-484 359.994,-484 359.994,-520"/>
<text text-anchor="middle" x="294.494" y="-499.2" font-family="Courier,monospace" font-size="11.00">lifeCacheMemcache</text>
</g>
<!-- \\lifeCacheMemcache&#45;&gt;\\lifeCacheEngine -->
<g id="edge5" class="edge"><title>\\lifeCacheMemcache&#45;&gt;\\lifeCacheEngine</title>
<path fill="none" stroke="black" d="M228.827,-510.028C202.179,-513.336 171.281,-517.172 144.269,-520.525"/>
<polygon fill="none" stroke="black" points="143.616,-517.079 134.124,-521.784 144.479,-524.026 143.616,-517.079"/>
</g>
<!-- \\lifeCache -->
<g id="node10" class="node"><title>\\lifeCache</title>
<polygon fill="none" stroke="black" points="332.994,-358 255.994,-358 255.994,-322 332.994,-322 332.994,-358"/>
<text text-anchor="middle" x="294.494" y="-337.2" font-family="Courier,monospace" font-size="11.00">lifeCache</text>
</g>
<!-- \\simple_html_dom_node -->
<g id="node12" class="node"><title>\\simple_html_dom_node</title>
<polygon fill="none" stroke="black" points="370.494,-304 218.494,-304 218.494,-268 370.494,-268 370.494,-304"/>
<text text-anchor="middle" x="294.494" y="-283.2" font-family="Courier,monospace" font-size="11.00">simple_html_dom_node</text>
</g>
<!-- \\simple_html_dom -->
<g id="node13" class="node"><title>\\simple_html_dom</title>
<polygon fill="none" stroke="black" points="353.494,-250 235.494,-250 235.494,-214 353.494,-214 353.494,-250"/>
<text text-anchor="middle" x="294.494" y="-229.2" font-family="Courier,monospace" font-size="11.00">simple_html_dom</text>
</g>
<!-- \\lifeAgents -->
<g id="node14" class="node"><title>\\lifeAgents</title>
<polygon fill="none" stroke="black" points="336.494,-196 252.494,-196 252.494,-160 336.494,-160 336.494,-196"/>
<text text-anchor="middle" x="294.494" y="-175.2" font-family="Courier,monospace" font-size="11.00">lifeAgents</text>
</g>
<!-- \\lifeSpider -->
<g id="node15" class="node"><title>\\lifeSpider</title>
<polygon fill="none" stroke="black" points="336.494,-142 252.494,-142 252.494,-106 336.494,-106 336.494,-142"/>
<text text-anchor="middle" x="294.494" y="-121.2" font-family="Courier,monospace" font-size="11.00">lifeSpider</text>
</g>
<!-- \\lifeRadio -->
<g id="node16" class="node"><title>\\lifeRadio</title>
<polygon fill="none" stroke="black" points="332.994,-88 255.994,-88 255.994,-52 332.994,-52 332.994,-88"/>
<text text-anchor="middle" x="294.494" y="-67.2" font-family="Courier,monospace" font-size="11.00">lifeRadio</text>
</g>
</g>
</svg>
